<?xml version="1.0" encoding="UTF-8" standalone="no"?>
<!-- Created with Inkscape (http://www.inkscape.org/) -->

<svg
   xmlns:dc="http://purl.org/dc/elements/1.1/"
   xmlns:cc="http://creativecommons.org/ns#"
   xmlns:rdf="http://www.w3.org/1999/02/22-rdf-syntax-ns#"
   xmlns:svg="http://www.w3.org/2000/svg"
   xmlns="http://www.w3.org/2000/svg"
   xmlns:xlink="http://www.w3.org/1999/xlink"
   xmlns:sodipodi="http://sodipodi.sourceforge.net/DTD/sodipodi-0.dtd"
   xmlns:inkscape="http://www.inkscape.org/namespaces/inkscape"
   width="176"
   height="176"
   id="svg2"
   version="1.1"
   inkscape:version="0.47 r22583"
   sodipodi:docname="icon_source_3_v1.svg">
  <defs
     id="defs4">
    <linearGradient
       id="linearGradient5125">
      <stop
         style="stop-color:#0000d5;stop-opacity:1;"
         offset="0"
         id="stop5127" />
      <stop
         id="stop5133"
         offset="0.62972015"
         style="stop-color:#0000d5;stop-opacity:1;" />
      <stop
         style="stop-color:#0000d5;stop-opacity:0;"
         offset="1"
         id="stop5129" />
    </linearGradient>
    <linearGradient
       inkscape:collect="always"
       id="linearGradient4091">
      <stop
         style="stop-color:#bfbfbf;stop-opacity:1;"
         offset="0"
         id="stop4093" />
      <stop
         style="stop-color:#bfbfbf;stop-opacity:0;"
         offset="1"
         id="stop4095" />
    </linearGradient>
    <inkscape:perspective
       sodipodi:type="inkscape:persp3d"
       inkscape:vp_x="0 : 526.18109 : 1"
       inkscape:vp_y="0 : 1000 : 0"
       inkscape:vp_z="744.09448 : 526.18109 : 1"
       inkscape:persp3d-origin="372.04724 : 350.78739 : 1"
       id="perspective10" />
    <filter
       inkscape:collect="always"
       id="filter3928">
      <feGaussianBlur
         inkscape:collect="always"
         stdDeviation="0.22816589"
         id="feGaussianBlur3930" />
    </filter>
    <filter
       inkscape:collect="always"
       id="filter3989"
       x="-0.087329251"
       width="1.1746585"
       y="-0.1393184"
       height="1.2786368">
      <feGaussianBlur
         inkscape:collect="always"
         stdDeviation="1.1841539"
         id="feGaussianBlur3991" />
    </filter>
    <linearGradient
       inkscape:collect="always"
       xlink:href="#linearGradient4091"
       id="linearGradient4097"
       x1="93.944191"
       y1="178.58215"
       x2="94.45829"
       y2="0.29022548"
       gradientUnits="userSpaceOnUse" />
    <filter
       inkscape:collect="always"
       id="filter3805">
      <feGaussianBlur
         inkscape:collect="always"
         stdDeviation="0.4225207"
         id="feGaussianBlur3807" />
    </filter>
    <filter
       inkscape:collect="always"
       id="filter3809">
      <feGaussianBlur
         inkscape:collect="always"
         stdDeviation="0.4225207"
         id="feGaussianBlur3811" />
    </filter>
    <filter
       inkscape:collect="always"
       id="filter3831">
      <feGaussianBlur
         inkscape:collect="always"
         stdDeviation="0.5315928"
         id="feGaussianBlur3833" />
    </filter>
    <filter
       inkscape:collect="always"
       id="filter3668">
      <feGaussianBlur
         inkscape:collect="always"
         stdDeviation="0.49739149"
         id="feGaussianBlur3670" />
    </filter>
    <filter
       inkscape:collect="always"
       id="filter3674">
      <feGaussianBlur
         inkscape:collect="always"
         stdDeviation="0.99478297"
         id="feGaussianBlur3676" />
    </filter>
    <filter
       inkscape:collect="always"
       id="filter3659"
       x="-85.456094"
       width="171.91219"
       y="-0.098810793"
       height="1.1976216">
      <feGaussianBlur
         inkscape:collect="always"
         stdDeviation="0.2723913"
         id="feGaussianBlur3661" />
    </filter>
    <filter
       inkscape:collect="always"
       id="filter3665"
       x="-0.052706492"
       width="1.105413"
       y="-0.20675986"
       height="1.4135197">
      <feGaussianBlur
         inkscape:collect="always"
         stdDeviation="0.2719521"
         id="feGaussianBlur3667" />
    </filter>
    <filter
       inkscape:collect="always"
       id="filter3669"
       x="-0.15058998"
       width="1.30118"
       y="-0.59074245"
       height="2.1814849">
      <feGaussianBlur
         inkscape:collect="always"
         stdDeviation="0.777006"
         id="feGaussianBlur3671" />
    </filter>
    <filter
       inkscape:collect="always"
       id="filter3673"
       x="-103.90149"
       width="208.80298"
       y="-0.12013875"
       height="1.2402775">
      <feGaussianBlur
         inkscape:collect="always"
         stdDeviation="0.331186"
         id="feGaussianBlur3675" />
    </filter>
    <radialGradient
       inkscape:collect="always"
       xlink:href="#linearGradient5125"
       id="radialGradient3670"
       cx="123.68742"
       cy="96.915047"
       fx="123.68742"
       fy="96.915047"
       r="58.456051"
       gradientTransform="matrix(0.8802487,1.2672683,-1.19414,0.82945366,145.36207,-128.92863)"
       gradientUnits="userSpaceOnUse" />
  </defs>
  <sodipodi:namedview
     id="base"
     pagecolor="#ffffff"
     bordercolor="#666666"
     borderopacity="1.0"
     inkscape:pageopacity="0.0"
     inkscape:pageshadow="2"
     inkscape:zoom="0.35"
     inkscape:cx="363.17296"
     inkscape:cy="264.66732"
     inkscape:document-units="px"
     inkscape:current-layer="svg2"
     showgrid="false"
     inkscape:snap-grids="false"
     inkscape:object-nodes="false"
     inkscape:snap-object-midpoints="false"
     inkscape:snap-center="false"
     inkscape:window-width="1260"
     inkscape:window-height="775"
     inkscape:window-x="20"
     inkscape:window-y="0"
     inkscape:window-maximized="1"
     inkscape:object-paths="true"
     inkscape:snap-global="false"
     inkscape:snap-page="true"
     inkscape:snap-nodes="true">
    <inkscape:grid
       type="xygrid"
       id="grid2818"
       empspacing="5"
       visible="true"
       enabled="true"
       snapvisiblegridlinesonly="true" />
  </sodipodi:namedview>
  <metadata
     id="metadata7">
    <rdf:RDF>
      <cc:Work
         rdf:about="">
        <dc:format>image/svg+xml</dc:format>
        <dc:type
           rdf:resource="http://purl.org/dc/dcmitype/StillImage" />
        <dc:title />
      </cc:Work>
    </rdf:RDF>
  </metadata>
  <g
     inkscape:label="Hexagon"
     inkscape:groupmode="layer"
     id="layer1"
     transform="translate(0,-876.36218)"
     style="display:none"
     sodipodi:insensitive="true">
    <path
       sodipodi:type="star"
       style="opacity:0.97999998;fill:#809900;fill-opacity:1;fill-rule:evenodd;stroke:none"
       id="path2820"
       sodipodi:sides="6"
       sodipodi:cx="60"
       sodipodi:cy="31"
       sodipodi:r1="90.138779"
       sodipodi:r2="78.062477"
       sodipodi:arg1="0.52359878"
       sodipodi:arg2="1.0471976"
       inkscape:flatsided="true"
       inkscape:rounded="0"
       inkscape:randomized="0"
       d="M 138.06247,76.06939 60,121.13878 -18.062472,76.069389 l 0,-90.138779 L 60,-59.138779 l 78.06247,45.06939 0,90.138779 z"
       transform="matrix(0.65275984,0,0,0.81594979,48.834409,939.06772)" />
  </g>
  <g
     inkscape:groupmode="layer"
     id="layer8"
     inkscape:label="Background"
     style="display:inline"
     sodipodi:insensitive="true">
    <rect
       style="fill:url(#linearGradient4097);fill-opacity:1;fill-rule:evenodd;stroke:none"
       id="rect4087"
       width="176.78572"
       height="177.5"
       x="0"
       y="-0.071429528"
       rx="0.049323853"
       ry="5" />
  </g>
  <g
     inkscape:groupmode="layer"
     id="layer7"
     inkscape:label="Background roads"
     sodipodi:insensitive="true">
    <path
       sodipodi:nodetypes="ccscccscsc"
       id="path3672"
       d="M 177.28125,40.625 111.875,118.9375 c 0,0 -2.52364,2.5295 -3.28125,5.8125 -0.75762,3.28299 4.03125,6.3125 4.03125,6.3125 l 24,17.15625 M 150,141 c 0,0 -15.15742,0.004 -15,14.90625 0.15742,14.90195 15,14.90625 15,14.90625 0,0 14.85415,0.27091 14.8125,-14.8125 C 164.77085,140.91659 150,141 150,141 z"
       style="fill:none;stroke:#404040;stroke-width:6;stroke-linecap:round;stroke-linejoin:round;stroke-miterlimit:4;stroke-opacity:1;stroke-dasharray:none;filter:url(#filter3674)" />
    <path
       id="path3664"
       d="M 150.00765,177.42857 150,170.8125"
       style="fill:none;stroke:#535353;stroke-width:6;stroke-linecap:butt;stroke-linejoin:miter;stroke-miterlimit:4;stroke-opacity:1;stroke-dasharray:none;filter:url(#filter3673)" />
    <path
       style="fill:none;stroke:#ffffff;stroke-width:3;stroke-linecap:butt;stroke-linejoin:miter;stroke-miterlimit:4;stroke-opacity:1;stroke-dasharray:none;filter:url(#filter3659)"
       d="M 150.00765,177.42857 150,170.8125"
       id="path3823" />
    <path
       id="path3666"
       d="m 176.78572,149.73603 -12.38339,3.15673"
       style="fill:none;stroke:#404040;stroke-width:6;stroke-linecap:butt;stroke-linejoin:miter;stroke-miterlimit:4;stroke-opacity:1;stroke-dasharray:none;filter:url(#filter3669)" />
    <path
       style="fill:none;stroke:#ffffff;stroke-width:3;stroke-linecap:butt;stroke-linejoin:miter;stroke-miterlimit:4;stroke-opacity:1;stroke-dasharray:none;filter:url(#filter3665)"
       d="m 176.78572,149.73603 -12.38339,3.15673"
       id="path3825" />
    <g
       id="g2992"
       style="stroke:#ffffff;stroke-linecap:round;stroke-linejoin:round;stroke-opacity:1;filter:url(#filter3809)">
      <path
         d="m 51.51778,146.95811 0,-11.86929 m 11.278687,25.50538 -21.380212,9.7e-4 -0.252539,-18.68782 10.354064,0 m 11.364216,33.33504 -0.366601,-62.78586"
         style="fill:none;stroke:#404040;stroke-width:6;stroke-linecap:round;stroke-linejoin:round;stroke-miterlimit:4;stroke-opacity:1;stroke-dasharray:none;filter:url(#filter3805)"
         id="path3787" />
      <path
         id="path4075"
         style="fill:none;stroke:#ffffff;stroke-width:3;stroke-linecap:round;stroke-linejoin:round;stroke-miterlimit:4;stroke-opacity:1;stroke-dasharray:none"
         d="m 51.51778,146.95811 0,-11.86929 m 11.278687,25.50538 -21.380212,9.7e-4 -0.252539,-18.68782 10.354064,0 m 11.364216,33.33504 -0.366601,-62.78586" />
    </g>
    <path
       style="fill:none;stroke:#ffffff;stroke-width:3;stroke-linecap:round;stroke-linejoin:round;stroke-miterlimit:4;stroke-opacity:1;stroke-dasharray:none;filter:url(#filter3668)"
       d="M 177.28125,40.625 111.875,118.9375 c 0,0 -2.52364,2.5295 -3.28125,5.8125 -0.75762,3.28299 4.03125,6.3125 4.03125,6.3125 l 24,17.15625 M 150,141 c 0,0 -15.15742,0.004 -15,14.90625 0.15742,14.90195 15,14.90625 15,14.90625 0,0 14.85415,0.27091 14.8125,-14.8125 C 164.77085,140.91659 150,141 150,141 z"
       id="path3819"
       sodipodi:nodetypes="ccscccscsc" />
    <g
       id="g3839"
       transform="translate(0.50507627,0.12626907)">
      <path
         style="fill:none;stroke:#404040;stroke-width:6;stroke-linecap:round;stroke-linejoin:round;stroke-miterlimit:4;stroke-opacity:1;stroke-dasharray:none;filter:url(#filter3831)"
         d="m 0,64.378145 23.486047,-10e-7 c 0,0 14.899749,0.252539 26.011427,8.586297 7.396262,5.382256 8.725676,6.27877 10.85914,16.414979 1.262691,8.838835 1.262691,8.586296 1.262691,8.586296 l 0.252538,10.859144"
         id="path3835"
         sodipodi:nodetypes="cccccc" />
      <path
         sodipodi:nodetypes="cccccc"
         id="path3829"
         d="m 0,64.378145 23.486047,-10e-7 c 0,0 14.899749,0.252539 26.011427,8.586297 7.396262,5.382256 8.725676,6.27877 10.85914,16.414979 1.262691,8.838835 1.262691,8.586296 1.262691,8.586296 l 0.252538,10.859144"
         style="fill:none;stroke:#ffffff;stroke-width:3;stroke-linecap:round;stroke-linejoin:round;stroke-miterlimit:4;stroke-opacity:1;stroke-dasharray:none;filter:url(#filter3831)" />
    </g>
  </g>
  <g
     inkscape:groupmode="layer"
     id="layer5"
     inkscape:label="Road painting"
     style="display:inline"
     sodipodi:insensitive="true">
    <path
       style="opacity:0.80676329;fill:#ffcc00;fill-opacity:1;fill-rule:evenodd;stroke:#ffcc00;stroke-width:0.75761443;stroke-linecap:butt;stroke-linejoin:round;stroke-miterlimit:4;stroke-opacity:1;stroke-dasharray:none;stroke-dashoffset:0"
       d="m 80.998698,136.79047 c -0.182862,-35.42442 -0.174412,-36.53281 0.281787,-36.962762 0.258665,-0.243782 2.221689,-1.71852 4.362275,-3.277197 3.399932,-2.475676 3.962615,-2.801772 4.450734,-2.57937 l 0.55876,0.254588 0.188731,30.324491 c 0.103802,16.67847 0.228134,30.32449 0.276292,30.32449 0.178252,0 40.148083,-28.0805 40.598183,-28.52195 0.95996,-0.9415 0.52054,-2.71975 -1.03318,-4.18112 -0.38319,-0.36041 -9.53328,-6.96947 -20.33353,-14.68681 C 99.548505,99.767495 90.656376,93.363411 90.588467,93.253532 c -0.107734,-0.174317 8.010666,-6.311586 8.348987,-6.311586 0.261171,0 41.693226,29.530604 42.799646,30.505354 2.69087,2.37063 3.41354,5.6852 1.8982,8.70622 -1.23298,2.4581 -3.04959,3.99476 -12.89666,10.90923 -24.43031,17.15462 -33.207688,23.54636 -34.298329,24.97627 -1.500836,1.96769 -1.672227,2.69964 -1.678265,7.16722 l -0.0055,4.10375 -6.784643,0 -6.784644,0 -0.188515,-36.51952 z"
       id="path3875" />
    <path
       style="opacity:0.93999999;fill:#ffcc00;fill-opacity:1;fill-rule:evenodd;stroke:#ffcc00;stroke-width:0.53571427;stroke-linecap:butt;stroke-linejoin:round;stroke-miterlimit:4;stroke-opacity:1;stroke-dasharray:none;stroke-dashoffset:0"
       d="m 58.843871,70.748884 -22.171839,-15.833051 3.514144,-3.57091 c 1.932778,-1.964 3.5945,-3.562057 3.692715,-3.551239 0.151723,0.01671 45.297446,32.012915 45.664864,32.364136 0.07103,0.0679 -1.49593,1.302525 -3.482143,2.743611 -1.98621,1.441084 -3.93408,2.858732 -4.328598,3.15033 l -0.717304,0.530175 -22.171839,-15.833052 0,0 z"
       id="path3879" />
    <path
       style="opacity:0.93999999;fill:#ffff99;fill-opacity:1;fill-rule:evenodd;stroke:#ffff99;stroke-width:0.53571427;stroke-linecap:butt;stroke-linejoin:round;stroke-miterlimit:4;stroke-opacity:1;stroke-dasharray:none;stroke-dashoffset:0"
       d="m 32.093176,51.678253 c -2.258928,-1.61535 -4.938812,-3.556648 -5.9553,-4.313996 -3.518896,-2.621805 -4.499034,-3.098259 -8.4197,-4.092891 -2.32058,-0.588708 -2.670382,-0.625899 -9.3557114,-0.994704 L 1.4174674,41.893533 1.5244113,39.766545 c 0.058819,-1.169843 0.1415115,-2.161555 0.1837608,-2.203804 0.081531,-0.08153 10.8304959,0.401944 12.7957179,0.575534 1.75901,0.155376 4.078594,0.574157 6.330965,1.143 2.626193,0.663254 5.130228,1.933766 7.011714,3.557642 0.764205,0.659573 2.393929,1.883229 3.621607,2.719237 1.227679,0.836007 3.584856,2.471649 5.238168,3.63476 l 3.006027,2.114746 -1.663213,1.670158 c -0.914767,0.918586 -1.70498,1.662795 -1.756026,1.653796 -0.05105,-0.009 -1.941027,-1.338011 -4.199956,-2.953361 z"
       id="path3891" />
    <path
       style="opacity:0.93999999;fill:#ffff99;fill-opacity:1;fill-rule:evenodd;stroke:#ffff99;stroke-width:0.53571427;stroke-linecap:butt;stroke-linejoin:round;stroke-miterlimit:4;stroke-opacity:1;stroke-dasharray:none;stroke-dashoffset:0"
       d="M 37.539605,49.007827 C 34.964728,47.192672 33.736601,46.09267 32.37288,44.380118 31.233498,42.949291 31.101055,42.668677 30.729405,40.897975 30.44569,39.546234 30.410055,38.265449 30.403787,29.195036 l -0.007,-10.185081 -12.205625,-8.386347 C 8.1809325,3.7457181 6.0570586,2.2170106 6.3833368,2.1246787 6.6021474,2.0627586 8.072402,1.9533591 9.6505691,1.8815687 l 2.8693949,-0.1305279 8.750931,5.9127529 c 4.813012,3.2520143 8.78522,5.9127533 8.827131,5.9127533 0.04191,0 0.13555,-2.532357 0.208088,-5.6274587 l 0.131885,-5.6274581 1.45259,0.1028739 c 0.798923,0.056581 1.640148,0.1412706 1.869387,0.1882 l 0.4168,0.085326 -0.115673,7.2696153 C 33.997482,13.965934 33.930458,22.179225 33.91216,28.219404 l -0.03327,10.982143 0.415725,0.779137 c 0.627598,1.176223 1.631446,2.050243 5.656483,4.924927 l 3.677486,2.626463 -1.641164,1.549023 c -0.902641,0.851961 -1.730252,1.566377 -1.839134,1.587589 -0.108882,0.02121 -1.282789,-0.726173 -2.608682,-1.660859 l 0,0 z"
       id="path3893" />
    <path
       style="fill:#ffcc00;fill-opacity:0.94117647;fill-rule:evenodd;stroke:#ffcc00;stroke-opacity:0.94117647;display:inline"
       d="m 80.875,3.34375 0.03125,34.90625 0,34.90625 4.71875,3.3125 4.71875,3.34375 0.09375,-29.71875 c 0.07558,-24.572118 0.168565,-29.651167 0.5625,-29.5 0.832904,0.319615 36.09908,26.663757 36.9375,27.59375 1.31275,1.456128 1.11142,3.428189 -0.53125,5.125 -1.2315,1.272093 -39.988276,29.635453 -77.65625,56.8125 -8.576009,6.1875 -15.57592,11.39392 -15.53125,11.5625 0.04467,0.16857 1.346558,1.81143 2.90625,3.65625 1.559692,1.84482 2.91991,3.34375 3,3.34375 0.08009,0 2.977227,-2.06745 6.4375,-4.59375 3.460274,-2.52629 19.455357,-14.19257 35.5625,-25.9375 39.92324,-29.111057 57.23087,-41.847997 59.03125,-43.5 C 143.77351,52.254685 143.95605,49.604882 141.6875,47 141.14976,46.382535 131.62947,39.431284 120.53125,31.5625 109.43304,23.693714 99.340664,16.556891 98.125,15.6875 95.054407,13.49154 94.701757,12.634937 94.53125,7.53125 l -0.15625,-4.1875 -6.75,0 -6.75,0 z M 33.34375,122.0625 c -0.178403,0.062 -7.335605,5.18814 -15.9375,11.40625 L 1.75,144.78125 l 0,6 c -0.00727,4.93 0.037531,5.97815 0.3125,5.8125 0.6912966,-0.41646 36.694077,-26.65992 37.125,-27.0625 0.427593,-0.39948 0.357055,-0.52656 -1.21875,-2.3125 -0.911887,-1.03349 -2.244238,-2.62989 -2.96875,-3.5625 -0.732519,-0.94292 -1.475875,-1.65645 -1.65625,-1.59375 z"
       id="path4037" />
  </g>
  <g
     inkscape:groupmode="layer"
     id="layer2"
     inkscape:label="BT Symbol"
     style="display:inline"
     sodipodi:insensitive="true">
    <path
       id="path2825"
       style="opacity:0.71014494;fill:none;stroke:url(#radialGradient3670);stroke-width:15;stroke-linecap:butt;stroke-linejoin:miter;stroke-miterlimit:4;stroke-opacity:1;stroke-dasharray:none"
       d="M 37.043953,124.77436 88,87.999998 37.043954,51.225638 M 88,14.45128 88,161.54872 138.95605,124.77436 88,87.999998 138.95605,51.225639 88,14.45128 z" />
  </g>
  <g
     inkscape:groupmode="layer"
     id="layer3"
     inkscape:label="Road"
     style="display:inline"
     sodipodi:insensitive="true">
    <g
       id="g3606"
       style="stroke:#809900;stroke-width:0.5;stroke-miterlimit:4;stroke-opacity:1;stroke-dasharray:none">
      <path
         sodipodi:nodetypes="cccc"
         id="path3667"
         d="m 80.559601,99.859491 0.154683,74.711939 M 80.357143,2.0714286 l 0.1473,71.1456634"
         style="fill:none;stroke:#809900;stroke-width:0.5;stroke-linecap:butt;stroke-linejoin:miter;stroke-miterlimit:4;stroke-opacity:1;stroke-dasharray:none" />
      <path
         id="path3663"
         d="m 95,1 0,8.5714286 c 0,0 -0.357143,2.8571424 1.785714,4.6428574 2.142857,1.785714 3.571426,2.5 3.571426,2.5 L 140,44.928571 c 0,0 8.21429,5 0.35714,11.071429 C 132.5,62.071429 0.11384192,158.49756 0.11384192,158.49756"
         style="fill:none;stroke:#809900;stroke-width:0.5;stroke-linecap:butt;stroke-linejoin:miter;stroke-miterlimit:4;stroke-opacity:1;stroke-dasharray:none"
         sodipodi:nodetypes="ccsccsc" />
      <path
         sodipodi:nodetypes="cccsc"
         id="path3665"
         d="M 91.049764,79.694853 91.071429,21 126.07143,47.071429 c 0,0 5.35714,2.857142 0.35714,6.785714 C 121.42857,57.785714 1.5960756e-7,145.64285 1.5960756e-7,145.64285"
         style="fill:none;stroke:#809900;stroke-width:0.5;stroke-linecap:butt;stroke-linejoin:miter;stroke-miterlimit:4;stroke-opacity:1;stroke-dasharray:none" />
      <path
         sodipodi:nodetypes="ccccscsc"
         id="path3669"
         d="M 90.229738,80.213684 36.785714,42.25 M 95,174.57143 95,166 c 0,0 0.357143,-2.5 2.5,-4.64286 C 99.642857,159.21429 140,131 140,131 c 0,0 10.72508,-7.81376 0.35715,-15.17857 L 98.911711,86.380879"
         style="fill:none;stroke:#809900;stroke-width:0.5;stroke-linecap:butt;stroke-linejoin:miter;stroke-miterlimit:4;stroke-opacity:1;stroke-dasharray:none" />
      <path
         sodipodi:nodetypes="cccccsc"
         id="path3671"
         d="M 81.047963,87.003809 29.546962,50.236008 m 61.435181,43.65549 0.436662,60.390222 38.890875,-27.27412 c 0,0 4.25408,-1.79758 -1.01015,-5.55584 L 89.744959,93.212803"
         style="fill:none;stroke:#809900;stroke-width:0.5;stroke-linecap:butt;stroke-linejoin:miter;stroke-miterlimit:4;stroke-opacity:1;stroke-dasharray:none" />
    </g>
    <path
       style="fill:none;stroke:#809900;stroke-width:0.5;stroke-linecap:butt;stroke-linejoin:miter;stroke-miterlimit:4;stroke-opacity:1;stroke-dasharray:none"
       d="m 36.785714,42.25 c 0,0 -2.566796,-1.86298 -2.566796,-3.630747 0,-1.767767 -0.126269,-1.894036 -0.126269,-1.894036 L 34.471456,1.2436087"
       id="path3621"
       sodipodi:nodetypes="cscc" />
    <path
       style="fill:none;stroke:#809900;stroke-width:0.5;stroke-linecap:butt;stroke-linejoin:miter;stroke-miterlimit:4;stroke-opacity:1;stroke-dasharray:none"
       d="m 40.027295,51.119891 -5.42957,-3.788072 c 0,0 -3.661803,-3.535534 -3.914341,-5.050763 -0.252538,-1.515229 -0.631346,-3.030458 -0.631346,-3.030458 l 0,-20.076782 L 3.4092649,0.8648015"
       id="path3623"
       sodipodi:nodetypes="ccsccc" />
    <path
       style="fill:none;stroke:#809900;stroke-width:0.5;stroke-linecap:butt;stroke-linejoin:miter;stroke-miterlimit:4;stroke-opacity:1;stroke-dasharray:none"
       d="M 30.052038,0.8648015 29.925769,13.112901 11.995562,0.99107057"
       id="path3627" />
    <path
       style="fill:none;stroke:#809900;stroke-width:0.5;stroke-linecap:butt;stroke-linejoin:miter;stroke-miterlimit:4;stroke-opacity:1;stroke-dasharray:none"
       d="m 34.406927,47.144254 -5.112503,-3.474238 c 0,0 -3.030458,-3.409265 -8.08122,-4.671956 -5.050763,-1.26269 -7.449875,-1.26269 -7.449875,-1.26269 L 0.37880721,37.104024"
       id="path3629" />
    <path
       style="fill:none;stroke:#809900;stroke-width:0.5;stroke-linecap:butt;stroke-linejoin:miter;stroke-miterlimit:4;stroke-opacity:1;stroke-dasharray:none"
       d="m 29.546962,50.236008 c 0,0 -4.360948,-2.978563 -4.924494,-3.535535 C 21.795825,43.906806 14.394674,42.912401 14.394674,42.912401 L 0.25253814,42.154787"
       id="path3631"
       sodipodi:nodetypes="cscc" />
  </g>
  <g
     inkscape:groupmode="layer"
     id="layer4"
     inkscape:label="Way"
     style="display:none"
     sodipodi:insensitive="true">
    <g
       id="g3853">
      <path
         id="path3847"
         d="M 139.16317,52.594451 C 136.98263,56.033483 62.011068,109.25634 62.011068,109.25634"
         style="opacity:0.80676329;fill:none;stroke:#003299;stroke-width:3;stroke-linecap:butt;stroke-linejoin:round;stroke-miterlimit:4;stroke-opacity:1;stroke-dasharray:none;marker-start:none;display:inline" />
      <path
         id="path3851"
         d="m 92.433087,91.923755 40.781203,29.433385 c 0,0 4.07278,3.9719 -0.40047,7.01659 -5.49183,3.73797 -37.03454,26.13271 -37.03454,26.13271 0,0 -7.312456,6.21935 -7.207851,-2.43501 0.115686,-9.29187 0,-57.142859 0,-57.142859 l 0,-74.642858 c 0,0 0.99839,-6.996781 6.357392,-4.508543 1.785714,0.357143 42.762439,31.398863 42.762439,31.398863 0,0 4.43365,2.539611 1.47191,5.418418"
         style="opacity:0.80676329;fill:none;stroke:#003299;stroke-width:3;stroke-linecap:butt;stroke-linejoin:round;stroke-miterlimit:4;stroke-opacity:1;stroke-dasharray:none;marker-start:none;display:inline" />
      <path
         id="path3647"
         d="m 63.233509,71.34355 18.909349,13.585021 10.290229,6.995184"
         style="opacity:0.80676329;fill:none;stroke:#003299;stroke-width:3;stroke-linecap:butt;stroke-linejoin:round;stroke-miterlimit:4;stroke-opacity:1;stroke-dasharray:none;marker-start:none;display:inline" />
    </g>
  </g>
  <g
     inkscape:groupmode="layer"
     id="layer6"
     inkscape:label="Point"
     style="display:none"
     sodipodi:insensitive="true">
    <g
       id="g4002"
       transform="translate(42.426407,-15.657364)">
      <path
         d="m 22.5,66.125 c -4.071119,0 -7.375,3.303881 -7.375,7.375 0,1.317573 0.362278,2.55214 0.96875,3.625 8.7e-5,1.59e-4 -0.0019,0.02668 0,0.03125 0.0112,0.02059 0.02007,0.04191 0.03125,0.0625 0.01264,0.03401 0.0275,0.0707 0.03125,0.09375 2.984594,5.510044 5.401894,11.12599 5.84375,17.25 0.0028,0.02219 -0.0038,0.0092 0,0.03125 0.0048,0.02185 -0.0058,0.0096 0,0.03125 0.0058,0.02161 -0.0067,0.0099 0,0.03125 0.0067,0.02134 -0.0077,0.01023 0,0.03125 0.0077,0.02102 0.02266,-0.02065 0.03125,0 0.0086,0.02065 -0.0095,0.011 0,0.03125 0.0095,0.02025 -0.0104,0.01144 0,0.03125 0.0104,0.01981 0.01998,-0.01932 0.03125,0 0.01127,0.01932 -0.01212,0.01245 0,0.03125 0.01212,0.0188 0.0183,0.01301 0.03125,0.03125 0.01375,0.01764 -0.01452,0.01424 0,0.03125 0.01452,0.01701 0.01598,-0.01635 0.03125,0 0.01527,0.01635 -0.01598,0.0156 0,0.03125 0.01598,0.01565 0.01458,-0.01492 0.03125,0 0.01667,0.01492 0.01394,0.01709 0.03125,0.03125 0.01793,0.01337 0.01274,0.01869 0.03125,0.03125 0.01905,0.01172 0.01169,-0.01086 0.03125,0 0.01956,0.01086 0.01123,0.02128 0.03125,0.03125 0.02045,0.0091 0.01042,-0.0081 0.03125,0 0.02083,0.0081 0.01008,0.02404 0.03125,0.03125 0.02147,0.0063 0.0095,-0.0053 0.03125,0 0.02173,0.0053 0.0093,-0.0043 0.03125,0 0.02195,0.0043 0.0091,-0.0033 0.03125,0 0.02225,0.0023 0.0089,-0.0013 0.03125,0 0.02233,0.0013 0.0089,0.0309 0.03125,0.03125 0.02237,3.49e-4 0.0089,-0.0306 0.03125,-0.03125 0.02231,-0.0016 0.009,0.0026 0.03125,0 0.02221,-0.0026 0.0092,0.0036 0.03125,0 0.02189,-0.0046 0.0096,0.0056 0.03125,0 0.02166,-0.0056 0.0099,0.0065 0.03125,0 0.02139,-0.0065 0.01018,0.0075 0.03125,0 0.02107,-0.0075 -0.02072,-0.02282 0,-0.03125 0.02072,-0.0084 0.01093,0.0093 0.03125,0 0.02032,-0.0093 0.01137,0.01024 0.03125,0 0.01988,-0.01024 -0.01941,-0.02013 0,-0.03125 0.01941,-0.01112 0.01236,0.01198 0.03125,0 0.01889,-0.01198 0.01291,0.01281 0.03125,0 0.01834,-0.01281 -0.01775,-0.01764 0,-0.03125 0.01775,-0.01361 0.01413,0.01439 0.03125,0 0.01712,-0.01439 -0.01646,-0.01611 0,-0.03125 0.01646,-0.01514 0.01548,0.01586 0.03125,0 0.01577,-0.01586 -0.01505,-0.0147 0,-0.03125 0.01505,-0.01655 0.01696,0.0172 0.03125,0 0.01429,-0.0172 -0.01351,-0.01342 0,-0.03125 0.01351,-0.01783 0.01855,-0.01284 0.03125,-0.03125 0.01187,-0.01896 -0.01101,-0.01178 0,-0.03125 0.01101,-0.01947 0.02112,-0.01131 0.03125,-0.03125 0.0092,-0.02038 -0.0083,-0.01048 0,-0.03125 0.0083,-0.02077 0.02388,-0.01013 0.03125,-0.03125 0.0064,-0.02142 -0.0055,-0.0096 0,-0.03125 0.0055,-0.02169 -0.0045,-0.0093 0,-0.03125 0.483873,-5.839508 2.775676,-11.539446 5.8125,-17.21875 0.0075,-0.04586 0.06192,-0.155169 0.0625,-0.15625 a 0.49240014,0.49240014 0 0 1 0,-0.03125 c 0.631837,-1.090495 1,-2.343591 1,-3.6875 0,-4.071119 -3.303881,-7.375 -7.375,-7.375 z"
         id="path3932"
         style="fill:#339900;fill-rule:evenodd;stroke:#339900;stroke-width:1.20114934px;stroke-linecap:butt;stroke-linejoin:miter;stroke-opacity:1;filter:url(#filter3928)"
         inkscape:original="M 22.5 65.625 C 18.161345 65.625 14.625 69.161345 14.625 73.5 C 14.625 74.907541 15.010801 76.233189 15.65625 77.375 C 15.660868 77.383487 15.651635 77.397763 15.65625 77.40625 C 18.669229 82.94751 21.067725 88.541079 21.5 94.625 A 1.0102536 1.0102536 0 0 0 23.5 94.65625 C 23.973622 88.864899 26.253283 83.168734 29.3125 77.46875 C 29.317141 77.460104 29.307856 77.446146 29.3125 77.4375 C 29.985545 76.275883 30.375 74.933108 30.375 73.5 C 30.375 69.161345 26.838655 65.625 22.5 65.625 z "
         inkscape:radius="-0.49235091"
         sodipodi:type="inkscape:offset" />
      <path
         transform="matrix(0.87002328,0.44689971,-0.68501846,0.56759511,68.428403,29.763048)"
         sodipodi:type="inkscape:offset"
         inkscape:radius="-0.49235091"
         inkscape:original="M 22.5 65.625 C 18.161345 65.625 14.625 69.161345 14.625 73.5 C 14.625 74.907541 15.010801 76.233189 15.65625 77.375 C 15.660868 77.383487 15.651635 77.397763 15.65625 77.40625 C 18.669229 82.94751 21.067725 88.541079 21.5 94.625 A 1.0102536 1.0102536 0 0 0 23.5 94.65625 C 23.973622 88.864899 26.253283 83.168734 29.3125 77.46875 C 29.317141 77.460104 29.307856 77.446146 29.3125 77.4375 C 29.985545 76.275883 30.375 74.933108 30.375 73.5 C 30.375 69.161345 26.838655 65.625 22.5 65.625 z "
         style="fill:#000000;fill-opacity:0.53608243;fill-rule:evenodd;stroke:none;filter:url(#filter3989)"
         id="path3955"
         d="m 22.5,66.125 c -4.071119,0 -7.375,3.303881 -7.375,7.375 0,1.317573 0.362278,2.55214 0.96875,3.625 8.7e-5,1.59e-4 -0.0019,0.02668 0,0.03125 0.0112,0.02059 0.02007,0.04191 0.03125,0.0625 0.01264,0.03401 0.0275,0.0707 0.03125,0.09375 2.984594,5.510044 5.401894,11.12599 5.84375,17.25 0.0028,0.02219 -0.0038,0.0092 0,0.03125 0.0048,0.02185 -0.0058,0.0096 0,0.03125 0.0058,0.02161 -0.0067,0.0099 0,0.03125 0.0067,0.02134 -0.0077,0.01023 0,0.03125 0.0077,0.02102 0.02266,-0.02065 0.03125,0 0.0086,0.02065 -0.0095,0.011 0,0.03125 0.0095,0.02025 -0.0104,0.01144 0,0.03125 0.0104,0.01981 0.01998,-0.01932 0.03125,0 0.01127,0.01932 -0.01212,0.01245 0,0.03125 0.01212,0.0188 0.0183,0.01301 0.03125,0.03125 0.01375,0.01764 -0.01452,0.01424 0,0.03125 0.01452,0.01701 0.01598,-0.01635 0.03125,0 0.01527,0.01635 -0.01598,0.0156 0,0.03125 0.01598,0.01565 0.01458,-0.01492 0.03125,0 0.01667,0.01492 0.01394,0.01709 0.03125,0.03125 0.01793,0.01337 0.01274,0.01869 0.03125,0.03125 0.01905,0.01172 0.01169,-0.01086 0.03125,0 0.01956,0.01086 0.01123,0.02128 0.03125,0.03125 0.02045,0.0091 0.01042,-0.0081 0.03125,0 0.02083,0.0081 0.01008,0.02404 0.03125,0.03125 0.02147,0.0063 0.0095,-0.0053 0.03125,0 0.02173,0.0053 0.0093,-0.0043 0.03125,0 0.02195,0.0043 0.0091,-0.0033 0.03125,0 0.02225,0.0023 0.0089,-0.0013 0.03125,0 0.02233,0.0013 0.0089,0.0309 0.03125,0.03125 0.02237,3.49e-4 0.0089,-0.0306 0.03125,-0.03125 0.02231,-0.0016 0.009,0.0026 0.03125,0 0.02221,-0.0026 0.0092,0.0036 0.03125,0 0.02189,-0.0046 0.0096,0.0056 0.03125,0 0.02166,-0.0056 0.0099,0.0065 0.03125,0 0.02139,-0.0065 0.01018,0.0075 0.03125,0 0.02107,-0.0075 -0.02072,-0.02282 0,-0.03125 0.02072,-0.0084 0.01093,0.0093 0.03125,0 0.02032,-0.0093 0.01137,0.01024 0.03125,0 0.01988,-0.01024 -0.01941,-0.02013 0,-0.03125 0.01941,-0.01112 0.01236,0.01198 0.03125,0 0.01889,-0.01198 0.01291,0.01281 0.03125,0 0.01834,-0.01281 -0.01775,-0.01764 0,-0.03125 0.01775,-0.01361 0.01413,0.01439 0.03125,0 0.01712,-0.01439 -0.01646,-0.01611 0,-0.03125 0.01646,-0.01514 0.01548,0.01586 0.03125,0 0.01577,-0.01586 -0.01505,-0.0147 0,-0.03125 0.01505,-0.01655 0.01696,0.0172 0.03125,0 0.01429,-0.0172 -0.01351,-0.01342 0,-0.03125 0.01351,-0.01783 0.01855,-0.01284 0.03125,-0.03125 0.01187,-0.01896 -0.01101,-0.01178 0,-0.03125 0.01101,-0.01947 0.02112,-0.01131 0.03125,-0.03125 0.0092,-0.02038 -0.0083,-0.01048 0,-0.03125 0.0083,-0.02077 0.02388,-0.01013 0.03125,-0.03125 0.0064,-0.02142 -0.0055,-0.0096 0,-0.03125 0.0055,-0.02169 -0.0045,-0.0093 0,-0.03125 0.483873,-5.839508 2.775676,-11.539446 5.8125,-17.21875 0.0075,-0.04586 0.06192,-0.155169 0.0625,-0.15625 a 0.49240014,0.49240014 0 0 1 0,-0.03125 c 0.631837,-1.090495 1,-2.343591 1,-3.6875 0,-4.071119 -3.303881,-7.375 -7.375,-7.375 z" />
      <path
         sodipodi:nodetypes="ccscscc"
         id="path3895"
         d="M 22.5,94.546876 C 22.051534,88.235085 19.579662,82.493341 16.53125,76.890626 15.96065,75.889633 15.625,74.719023 15.625,73.484376 c 0,-3.790723 3.084277,-6.875 6.875,-6.875 3.790723,0 6.875,3.084277 6.875,6.875 0,1.25967 -0.343588,2.452353 -0.9375,3.46875 C 25.337965,82.7238 22.991322,88.539092 22.5,94.546876"
         style="fill:#339900;fill-rule:evenodd;stroke:#000000;stroke-width:1.20114934px;stroke-linecap:butt;stroke-linejoin:miter;stroke-opacity:1" />
      <text
         id="text3998"
         y="78.77282"
         x="18.309179"
         style="font-size:13px;font-style:normal;font-weight:normal;text-align:start;line-height:125%;writing-mode:lr-tb;text-anchor:start;fill:#000000;fill-opacity:1;stroke:none;font-family:Bitstream Vera Sans"
         xml:space="preserve"
         sodipodi:linespacing="125%"
         inkscape:transform-center-x="1.5152288"
         inkscape:transform-center-y="-1.5152288"><tspan
           sodipodi:role="line"
           id="tspan4029"
           x="18.309179"
           y="78.77282">B</tspan></text>
    </g>
    <g
       id="g4009"
       transform="translate(43.837031,19.950512)">
      <path
         sodipodi:type="inkscape:offset"
         inkscape:radius="-0.49235091"
         inkscape:original="M 22.5 65.625 C 18.161345 65.625 14.625 69.161345 14.625 73.5 C 14.625 74.907541 15.010801 76.233189 15.65625 77.375 C 15.660868 77.383487 15.651635 77.397763 15.65625 77.40625 C 18.669229 82.94751 21.067725 88.541079 21.5 94.625 A 1.0102536 1.0102536 0 0 0 23.5 94.65625 C 23.973622 88.864899 26.253283 83.168734 29.3125 77.46875 C 29.317141 77.460104 29.307856 77.446146 29.3125 77.4375 C 29.985545 76.275883 30.375 74.933108 30.375 73.5 C 30.375 69.161345 26.838655 65.625 22.5 65.625 z "
         style="fill:#339900;fill-rule:evenodd;stroke:#339900;stroke-width:1.20114934px;stroke-linecap:butt;stroke-linejoin:miter;stroke-opacity:1;filter:url(#filter3928)"
         id="path4011"
         d="m 22.5,66.125 c -4.071119,0 -7.375,3.303881 -7.375,7.375 0,1.317573 0.362278,2.55214 0.96875,3.625 8.7e-5,1.59e-4 -0.0019,0.02668 0,0.03125 0.0112,0.02059 0.02007,0.04191 0.03125,0.0625 0.01264,0.03401 0.0275,0.0707 0.03125,0.09375 2.984594,5.510044 5.401894,11.12599 5.84375,17.25 0.0028,0.02219 -0.0038,0.0092 0,0.03125 0.0048,0.02185 -0.0058,0.0096 0,0.03125 0.0058,0.02161 -0.0067,0.0099 0,0.03125 0.0067,0.02134 -0.0077,0.01023 0,0.03125 0.0077,0.02102 0.02266,-0.02065 0.03125,0 0.0086,0.02065 -0.0095,0.011 0,0.03125 0.0095,0.02025 -0.0104,0.01144 0,0.03125 0.0104,0.01981 0.01998,-0.01932 0.03125,0 0.01127,0.01932 -0.01212,0.01245 0,0.03125 0.01212,0.0188 0.0183,0.01301 0.03125,0.03125 0.01375,0.01764 -0.01452,0.01424 0,0.03125 0.01452,0.01701 0.01598,-0.01635 0.03125,0 0.01527,0.01635 -0.01598,0.0156 0,0.03125 0.01598,0.01565 0.01458,-0.01492 0.03125,0 0.01667,0.01492 0.01394,0.01709 0.03125,0.03125 0.01793,0.01337 0.01274,0.01869 0.03125,0.03125 0.01905,0.01172 0.01169,-0.01086 0.03125,0 0.01956,0.01086 0.01123,0.02128 0.03125,0.03125 0.02045,0.0091 0.01042,-0.0081 0.03125,0 0.02083,0.0081 0.01008,0.02404 0.03125,0.03125 0.02147,0.0063 0.0095,-0.0053 0.03125,0 0.02173,0.0053 0.0093,-0.0043 0.03125,0 0.02195,0.0043 0.0091,-0.0033 0.03125,0 0.02225,0.0023 0.0089,-0.0013 0.03125,0 0.02233,0.0013 0.0089,0.0309 0.03125,0.03125 0.02237,3.49e-4 0.0089,-0.0306 0.03125,-0.03125 0.02231,-0.0016 0.009,0.0026 0.03125,0 0.02221,-0.0026 0.0092,0.0036 0.03125,0 0.02189,-0.0046 0.0096,0.0056 0.03125,0 0.02166,-0.0056 0.0099,0.0065 0.03125,0 0.02139,-0.0065 0.01018,0.0075 0.03125,0 0.02107,-0.0075 -0.02072,-0.02282 0,-0.03125 0.02072,-0.0084 0.01093,0.0093 0.03125,0 0.02032,-0.0093 0.01137,0.01024 0.03125,0 0.01988,-0.01024 -0.01941,-0.02013 0,-0.03125 0.01941,-0.01112 0.01236,0.01198 0.03125,0 0.01889,-0.01198 0.01291,0.01281 0.03125,0 0.01834,-0.01281 -0.01775,-0.01764 0,-0.03125 0.01775,-0.01361 0.01413,0.01439 0.03125,0 0.01712,-0.01439 -0.01646,-0.01611 0,-0.03125 0.01646,-0.01514 0.01548,0.01586 0.03125,0 0.01577,-0.01586 -0.01505,-0.0147 0,-0.03125 0.01505,-0.01655 0.01696,0.0172 0.03125,0 0.01429,-0.0172 -0.01351,-0.01342 0,-0.03125 0.01351,-0.01783 0.01855,-0.01284 0.03125,-0.03125 0.01187,-0.01896 -0.01101,-0.01178 0,-0.03125 0.01101,-0.01947 0.02112,-0.01131 0.03125,-0.03125 0.0092,-0.02038 -0.0083,-0.01048 0,-0.03125 0.0083,-0.02077 0.02388,-0.01013 0.03125,-0.03125 0.0064,-0.02142 -0.0055,-0.0096 0,-0.03125 0.0055,-0.02169 -0.0045,-0.0093 0,-0.03125 0.483873,-5.839508 2.775676,-11.539446 5.8125,-17.21875 0.0075,-0.04586 0.06192,-0.155169 0.0625,-0.15625 a 0.49240014,0.49240014 0 0 1 0,-0.03125 c 0.631837,-1.090495 1,-2.343591 1,-3.6875 0,-4.071119 -3.303881,-7.375 -7.375,-7.375 z" />
      <path
         d="m 22.5,66.125 c -4.071119,0 -7.375,3.303881 -7.375,7.375 0,1.317573 0.362278,2.55214 0.96875,3.625 8.7e-5,1.59e-4 -0.0019,0.02668 0,0.03125 0.0112,0.02059 0.02007,0.04191 0.03125,0.0625 0.01264,0.03401 0.0275,0.0707 0.03125,0.09375 2.984594,5.510044 5.401894,11.12599 5.84375,17.25 0.0028,0.02219 -0.0038,0.0092 0,0.03125 0.0048,0.02185 -0.0058,0.0096 0,0.03125 0.0058,0.02161 -0.0067,0.0099 0,0.03125 0.0067,0.02134 -0.0077,0.01023 0,0.03125 0.0077,0.02102 0.02266,-0.02065 0.03125,0 0.0086,0.02065 -0.0095,0.011 0,0.03125 0.0095,0.02025 -0.0104,0.01144 0,0.03125 0.0104,0.01981 0.01998,-0.01932 0.03125,0 0.01127,0.01932 -0.01212,0.01245 0,0.03125 0.01212,0.0188 0.0183,0.01301 0.03125,0.03125 0.01375,0.01764 -0.01452,0.01424 0,0.03125 0.01452,0.01701 0.01598,-0.01635 0.03125,0 0.01527,0.01635 -0.01598,0.0156 0,0.03125 0.01598,0.01565 0.01458,-0.01492 0.03125,0 0.01667,0.01492 0.01394,0.01709 0.03125,0.03125 0.01793,0.01337 0.01274,0.01869 0.03125,0.03125 0.01905,0.01172 0.01169,-0.01086 0.03125,0 0.01956,0.01086 0.01123,0.02128 0.03125,0.03125 0.02045,0.0091 0.01042,-0.0081 0.03125,0 0.02083,0.0081 0.01008,0.02404 0.03125,0.03125 0.02147,0.0063 0.0095,-0.0053 0.03125,0 0.02173,0.0053 0.0093,-0.0043 0.03125,0 0.02195,0.0043 0.0091,-0.0033 0.03125,0 0.02225,0.0023 0.0089,-0.0013 0.03125,0 0.02233,0.0013 0.0089,0.0309 0.03125,0.03125 0.02237,3.49e-4 0.0089,-0.0306 0.03125,-0.03125 0.02231,-0.0016 0.009,0.0026 0.03125,0 0.02221,-0.0026 0.0092,0.0036 0.03125,0 0.02189,-0.0046 0.0096,0.0056 0.03125,0 0.02166,-0.0056 0.0099,0.0065 0.03125,0 0.02139,-0.0065 0.01018,0.0075 0.03125,0 0.02107,-0.0075 -0.02072,-0.02282 0,-0.03125 0.02072,-0.0084 0.01093,0.0093 0.03125,0 0.02032,-0.0093 0.01137,0.01024 0.03125,0 0.01988,-0.01024 -0.01941,-0.02013 0,-0.03125 0.01941,-0.01112 0.01236,0.01198 0.03125,0 0.01889,-0.01198 0.01291,0.01281 0.03125,0 0.01834,-0.01281 -0.01775,-0.01764 0,-0.03125 0.01775,-0.01361 0.01413,0.01439 0.03125,0 0.01712,-0.01439 -0.01646,-0.01611 0,-0.03125 0.01646,-0.01514 0.01548,0.01586 0.03125,0 0.01577,-0.01586 -0.01505,-0.0147 0,-0.03125 0.01505,-0.01655 0.01696,0.0172 0.03125,0 0.01429,-0.0172 -0.01351,-0.01342 0,-0.03125 0.01351,-0.01783 0.01855,-0.01284 0.03125,-0.03125 0.01187,-0.01896 -0.01101,-0.01178 0,-0.03125 0.01101,-0.01947 0.02112,-0.01131 0.03125,-0.03125 0.0092,-0.02038 -0.0083,-0.01048 0,-0.03125 0.0083,-0.02077 0.02388,-0.01013 0.03125,-0.03125 0.0064,-0.02142 -0.0055,-0.0096 0,-0.03125 0.0055,-0.02169 -0.0045,-0.0093 0,-0.03125 0.483873,-5.839508 2.775676,-11.539446 5.8125,-17.21875 0.0075,-0.04586 0.06192,-0.155169 0.0625,-0.15625 a 0.49240014,0.49240014 0 0 1 0,-0.03125 c 0.631837,-1.090495 1,-2.343591 1,-3.6875 0,-4.071119 -3.303881,-7.375 -7.375,-7.375 z"
         id="path4013"
         style="fill:#000000;fill-opacity:0.53608243;fill-rule:evenodd;stroke:none;filter:url(#filter3989)"
         inkscape:original="M 22.5 65.625 C 18.161345 65.625 14.625 69.161345 14.625 73.5 C 14.625 74.907541 15.010801 76.233189 15.65625 77.375 C 15.660868 77.383487 15.651635 77.397763 15.65625 77.40625 C 18.669229 82.94751 21.067725 88.541079 21.5 94.625 A 1.0102536 1.0102536 0 0 0 23.5 94.65625 C 23.973622 88.864899 26.253283 83.168734 29.3125 77.46875 C 29.317141 77.460104 29.307856 77.446146 29.3125 77.4375 C 29.985545 76.275883 30.375 74.933108 30.375 73.5 C 30.375 69.161345 26.838655 65.625 22.5 65.625 z "
         inkscape:radius="-0.49235091"
         sodipodi:type="inkscape:offset"
         transform="matrix(0.87002328,0.44689971,-0.68501846,0.56759511,68.428403,29.763048)" />
      <path
         style="fill:#339900;fill-rule:evenodd;stroke:#000000;stroke-width:1.20114934px;stroke-linecap:butt;stroke-linejoin:miter;stroke-opacity:1"
         d="M 22.5,94.546876 C 22.051534,88.235085 19.579662,82.493341 16.53125,76.890626 15.96065,75.889633 15.625,74.719023 15.625,73.484376 c 0,-3.790723 3.084277,-6.875 6.875,-6.875 3.790723,0 6.875,3.084277 6.875,6.875 0,1.25967 -0.343588,2.452353 -0.9375,3.46875 C 25.337965,82.7238 22.991322,88.539092 22.5,94.546876"
         id="path4015"
         sodipodi:nodetypes="ccscscc" />
      <text
         xml:space="preserve"
         style="font-size:13px;font-style:normal;font-weight:normal;text-align:start;line-height:125%;writing-mode:lr-tb;text-anchor:start;fill:#000000;fill-opacity:1;stroke:none;font-family:Bitstream Vera Sans"
         x="18.561716"
         y="79.277893"
         id="text4017"
         sodipodi:linespacing="125%"><tspan
           sodipodi:role="line"
           id="tspan4031"
           x="18.561716"
           y="79.277893">T</tspan></text>
    </g>
  </g>
  <g
     inkscape:groupmode="layer"
     id="layer9"
     inkscape:label="Corners"
     style="display:inline" />
</svg>
